Coordinates
version=1
nRows=14
nColumns=40
inDegrees=yes

Units are S.I. units (second, meters, Newtons, ...)
Angles are in degrees.

endheader
time	pelvis_tilt	pelvis_list	pelvis_rotation	pelvis_tx	pelvis_ty	pelvis_tz	hip_flexion_r	hip_adduction_r	hip_rotation_r	knee_angle_r	knee_angle_r_beta	ankle_angle_r	subtalar_angle_r	mtp_angle_r	hip_flexion_l	hip_adduction_l	hip_rotation_l	knee_angle_l	knee_angle_l_beta	ankle_angle_l	subtalar_angle_l	mtp_angle_l	lumbar_extension	lumbar_bending	lumbar_rotation	arm_flex_r	arm_add_r	arm_rot_r	elbow_flex_r	pro_sup_r	wrist_flex_r	wrist_dev_r	arm_flex_l	arm_add_l	arm_rot_l	elbow_flex_l	pro_sup_l	wrist_flex_l	wrist_dev_l
      1.69500000	     -6.23785015	     -5.10967420	     -1.55942849	      1.00257633	      0.90906107	      0.42744836	      3.29436409	     -1.51604569	    -10.96142825	     36.26419993	     36.26419993	     14.26561865	     -0.54036860	    -12.53642389	     32.96375987	     -7.53374361	     -7.18602274	     28.80568032	     28.80568032	      5.04602675	    -15.11707074	      3.55772975	     -8.12985019	      3.43748280	      2.32654115	     32.47506520	    -13.03738474	     -0.33186653	    106.63309076	     44.20298528	      0.00000000	      0.00000000	     -8.66817566	     -6.29596558	      4.03300029	     25.83293723	     44.74272059	      0.00000000	      0.00000000
      1.70657143	     -6.09233740	     -4.82070136	     -1.69768387	      1.00266811	      0.91087818	      0.42517224	      5.21102672	     -2.51147883	    -10.91965722	     40.72907773	     40.72907773	     12.31766354	     -2.56305819	    -13.02236415	     31.98273150	     -7.28815340	     -7.87544759	     28.70804353	     28.70804353	      5.93453753	    -14.38888612	      2.97658636	     -8.32682505	      3.08620764	      1.96556702	     30.19711866	    -13.13957477	      0.05915715	    106.26512354	     44.20069043	      0.00000000	      0.00000000	     -7.21104068	     -6.80400560	      3.89689161	     25.98513741	     44.80343602	      0.00000000	      0.00000000
      1.71814286	     -6.03687152	     -4.55008350	     -1.81203803	      1.00240995	      0.91262020	      0.42302997	      7.39411877	     -3.44752268	    -10.86377766	     45.30645548	     45.30645548	     10.37198322	     -4.92348971	    -12.96356673	     31.04262663	     -7.07417411	     -8.69441700	     28.45186977	     28.45186977	      6.69928411	    -13.44656854	      2.34793695	     -8.41395982	      2.75505499	      1.63051109	     27.77696899	    -13.36101656	      0.45032829	    105.65082467	     44.20522042	      0.00000000	      0.00000000	     -5.64028230	     -7.35496992	      3.74546973	     26.20038207	     44.86754041	      0.00000000	      0.00000000
      1.72971429	     -6.00868472	     -4.42783398	     -1.88849588	      1.00194925	      0.91436517	      0.42108002	      9.65543197	     -4.08683326	    -10.67085959	     49.75078504	     49.75078504	      8.58950046	     -7.60733646	    -11.97664364	     30.11267446	     -7.05353925	     -9.61962046	     28.12549849	     28.12549849	      7.41210975	    -12.08288028	      1.45285010	     -8.47273679	      2.62426311	      1.54325687	     25.18190526	    -13.88962978	      0.66618566	    104.81666083	     44.22822038	      0.00000000	      0.00000000	     -3.78876188	     -7.86362910	      3.52784629	     26.29198921	     44.95637691	      0.00000000	      0.00000000
      1.74128571	     -5.90130863	     -4.21076095	     -1.94274105	      1.00139190	      0.91612170	      0.41917341	     11.98649323	     -4.93871264	    -10.62677652	     54.42535174	     54.42535174	      8.56564293	     -8.78793856	     -6.72034977	     29.03507802	     -6.90322768	    -10.56710378	     27.65635916	     27.65635916	      7.76876698	    -10.89574414	     -0.04972682	     -8.64758869	      2.37729940	      1.67962237	     22.20323683	    -14.22013315	      0.15368030	    104.25392335	     44.33171227	      0.00000000	      0.00000000	     -1.34227604	     -8.23162671	      2.79393238	     25.24982594	     45.22195573	      0.00000000	      0.00000000
      1.75285714	     -5.83371450	     -3.95168991	     -1.92668740	      1.00060368	      0.91777511	      0.41723362	     14.19959265	     -5.82552237	    -10.65584054	     58.45217058	     58.45217058	      7.17347568	    -10.72867366	     -6.11446652	     28.02065859	     -6.58117333	    -11.20588601	     27.15233909	     27.15233909	      8.31461551	    -10.02247932	     -0.40221237	     -8.78768288	      2.10894871	      1.09214571	     19.74301747	    -14.28956016	      0.57405835	    102.87417483	     44.35756011	      0.00000000	      0.00000000	      0.21125127	     -8.97947800	      2.64724902	     25.83439475	     45.27960709	      0.00000000	      0.00000000
      1.76442857	     -5.75114948	     -3.85648128	     -1.89204895	      0.99971797	      0.91942115	      0.41555852	     16.35829047	     -6.42774817	    -10.61750372	     62.18303580	     62.18303580	      6.34184837	    -12.51435429	     -4.36983201	     27.02142280	     -6.51395565	    -12.00861740	     26.70314707	     26.70314707	      8.87962305	     -8.62412551	     -1.00902463	     -8.90756236	      1.99068800	      0.85927717	     17.28704484	    -14.62864184	      0.60620093	    100.52679347	     44.43381917	      0.00000000	      0.00000000	      2.03590440	     -9.64517008	      2.45467563	     26.46210735	     45.35613349	      0.00000000	      0.00000000
      1.77600000	     -5.63132367	     -3.74487003	     -1.79143635	      0.99876446	      0.92098773	      0.41389697	     18.48816459	     -7.12544351	    -10.67678408	     65.77315738	     65.77315738	      6.71360539	    -13.21767828	     -0.20100218	     26.02350830	     -6.39230937	    -12.71911691	     26.29046219	     26.29046219	      9.37777878	     -7.32845937	     -1.64470276	     -9.05700497	      1.88613602	      0.24767139	     15.02787181	    -14.27752272	      0.17709630	     97.74944959	     44.56241167	      0.00000000	      0.00000000	      3.85550531	    -10.38800078	      2.17972144	     26.62598283	     45.47018306	      0.00000000	      0.00000000
      1.78757143	     -5.56539660	     -3.58600806	     -1.69433405	      0.99769168	      0.92247994	      0.41221121	     20.51496958	     -7.83260256	    -10.65443489	     68.70687688	     68.70687688	      6.04836707	    -14.34546973	      0.33692288	     25.03583053	     -6.07592988	    -13.00988016	     25.71386052	     25.71386052	      9.78082339	     -6.68633343	     -1.81034876	     -9.21843355	      1.76895072	     -0.05993783	     12.46290975	    -14.65967311	      0.40633802	     95.68689065	     44.61739345	      0.00000000	      0.00000000	      5.69830735	    -11.11825767	      2.02214823	     27.34395970	     45.53437455	      0.00000000	      0.00000000
      1.79914286	     -5.47865380	     -3.52737748	     -1.57797855	      0.99657271	      0.92393697	      0.41069527	     22.44120499	     -8.41780854	    -10.66887054	     71.23518315	     71.23518315	      5.81822010	    -15.01823482	      1.64558821	     24.07682798	     -5.91969071	    -13.42642152	     25.22759769	     25.22759769	     10.15308225	     -5.81594138	     -2.13621784	     -9.35043405	      1.72578540	     -0.44799762	     10.25847445	    -14.46137893	     -0.20799599	     92.21490158	     44.75625546	      0.00000000	      0.00000000	      7.62861079	    -11.84500196	      1.91613744	     27.72147089	     45.60430463	      0.00000000	      0.00000000
      1.81071429	     -5.32135346	     -3.52647083	     -1.36192870	      0.99548060	      0.92530354	      0.40919785	     24.11031888	     -8.96211645	    -10.78509122	     73.18946071	     73.18946071	      5.35912231	    -15.57447248	      1.73391093	     23.12864943	     -5.73090701	    -13.41339681	     24.84721000	     24.84721000	     10.60034293	     -5.37433577	     -2.29706870	     -9.65281020	      1.79041957	     -1.12165877	      7.79465022	    -14.56056847	      0.01452371	     90.45841638	     44.79723808	      0.00000000	      0.00000000	      9.35903106	    -12.77185832	      1.77489877	     28.37282843	     45.65726324	      0.00000000	      0.00000000
      1.82228571	     -5.22371715	     -3.45764363	     -1.35950042	      0.99434544	      0.92667352	      0.40798079	     25.85318048	     -9.44271753	    -10.60301964	     74.71635474	     74.71635474	      5.00274579	    -15.83225870	      2.06278890	     22.08133445	     -5.55573804	    -13.77099734	     24.22491429	     24.22491429	     10.95998235	     -4.70660159	     -2.53688796	     -9.73849705	      1.74246481	     -0.76202710	      5.61774242	    -14.79914440	     -0.82816261	     85.65985900	     44.97604242	      0.00000000	      0.00000000	     11.58395647	    -13.18412481	      1.75882698	     29.12473156	     45.70557316	      0.00000000	      0.00000000
      1.83385714	     -5.15126033	     -3.45616087	     -1.29193423	      0.99314181	      0.92790083	      0.40688548	     27.46663768	     -9.84084022	    -10.51235002	     75.67246641	     75.67246641	      4.59468819	    -15.89322429	      2.15790584	     21.14702344	     -5.41687756	    -13.90325753	     23.70718480	     23.70718480	     11.32576095	     -4.25970111	     -2.82301744	     -9.89714391	      1.75282976	     -1.03291018	      3.81569245	    -14.44968945	     -1.77315325	     81.26925235	     45.14618668	      0.00000000	      0.00000000	     13.59108071	    -13.88482989	      1.80352248	     29.50130791	     45.74521229	      0.00000000	      0.00000000
      1.84542857	     -4.99733991	     -3.46654734	     -1.20703607	      0.99199672	      0.92898960	      0.40586191	     28.88507408	    -10.17759639	    -10.38916554	     76.16650780	     76.16650780	      4.17422612	    -15.83100985	      2.01304311	     20.16209034	     -5.28502510	    -13.91749271	     23.25721499	     23.25721499	     11.65666281	     -3.88432579	     -3.08660910	    -10.05701510	      1.84023851	     -1.17087829	      1.93180608	    -14.32864137	     -2.45799341	     77.23652598	     45.29344147	      0.00000000	      0.00000000	     15.52078336	    -14.47553857	      1.85031501	     30.09121571	     45.78033140	      0.00000000	      0.00000000
